<svg xmlns="http://www.w3.org/2000/svg" viewBox="0 0 82.67 82.67"><title>Asset 4</title><g id="Layer_2" data-name="Layer 2"><g id="Layer_1-2" data-name="Layer 1"><path d="M41.33,0A41.33,41.33,0,1,0,82.67,41.33,41.33,41.33,0,0,0,41.33,0Zm0,77.33a36,36,0,1,1,36-36A36,36,0,0,1,41.33,77.33Z"/><path d="M22.89,56.21A23.63,23.63,0,0,0,35.69,60C51.19,60,60,46.87,59.42,35.12a16.93,16.93,0,0,0,4.17-4.32,16.68,16.68,0,0,1-4.79,1.31,8.36,8.36,0,0,0,3.67-4.62,16.74,16.74,0,0,1-5.3,2,8.36,8.36,0,0,0-14.23,7.62,23.7,23.7,0,0,1-17.21-8.72,8.36,8.36,0,0,0,2.58,11.15,8.32,8.32,0,0,1-3.78-1,8.36,8.36,0,0,0,6.7,8.29,8.36,8.36,0,0,1-3.77.14,8.35,8.35,0,0,0,7.8,5.8A16.78,16.78,0,0,1,22.89,56.21Z"/></g></g></svg>